<svg width="24" height="24" xmlns="http://www.w3.org/2000/svg">

 <g>
  <title>background</title>
  <rect fill="none" id="canvas_background" height="402" width="582" y="-1" x="-1"/>
 </g>
 <g>
  <title>Layer 1</title>
  <path fill="#ffffff" id="svg_1" d="m16.75,7l-9.5,0a2,2 0 0 0 -2,2l0,0a2,2 0 0 0 2,2l1.68,-1.44a1,1 0 0 1 1.3,0l1,0.88a1,1 0 0 0 1.3,0l1,-0.9a1,1 0 0 1 1.28,0l1.94,1.46a2,2 0 0 0 2,-2l0,0a2,2 0 0 0 -2,-2z" class="cls-1"/>
  <path fill="#ffffff" id="svg_2" d="m14.25,2l-4.5,0a2,2 0 0 0 -2,2l0,0a2,2 0 0 0 2,2l1.66,-1.42a1,1 0 0 1 1.33,0l1.51,1.42a2,2 0 0 0 2,-2l0,0a2,2 0 0 0 -2,-2z" class="cls-1"/>
  <path fill="#ffffff" id="svg_3" d="m19,12l-14,0a2,2 0 0 0 -2,2l0,0a2,2 0 0 0 2,2l1.68,-1.44a1,1 0 0 1 1.3,0l1,0.87a1,1 0 0 0 1.33,0l1,-0.87a1,1 0 0 1 1.3,0l1,0.87a1,1 0 0 0 1.33,0l1,-0.87a1,1 0 0 1 1.3,0l1.76,1.44a2,2 0 0 0 2,-2l0,0a2,2 0 0 0 -2,-2z" class="cls-1"/>
  <path fill="#ffffff" id="svg_4" d="m17,22l-10,0a3,3 0 0 1 -3,-3l0,-1a1,1 0 0 1 2,0l0,1a1,1 0 0 0 1,1l10,0a1,1 0 0 0 1,-1l0,-1a1,1 0 0 1 2,0l0,1a3,3 0 0 1 -3,3z" class="cls-1"/>
 </g>
</svg>